<?xml version="1.0" standalone="no"?><!DOCTYPE svg PUBLIC "-//W3C//DTD SVG 1.1//EN" "http://www.w3.org/Graphics/SVG/1.1/DTD/svg11.dtd"><svg t="1733673194072" class="icon" viewBox="0 0 2083 1024" version="1.1" xmlns="http://www.w3.org/2000/svg" p-id="22377" xmlns:xlink="http://www.w3.org/1999/xlink" width="406.8359375" height="200"><path d="M2070.670683 19.909268a41.809462 41.809462 0 0 1 11.945561 40.482177v902.553468a57.073234 57.073234 0 0 1-16.591057 41.145819 66.364226 66.364226 0 0 1-44.464031 19.909268H932.524215v-112.155541h21.236552a53.09138 53.09138 0 0 0 30.527544-14.60013L1194.662906 688.197019a59.727803 59.727803 0 0 0 7.300065-37.827609v-15.927414h15.927414V284.702528a51.764096 51.764096 0 0 0-15.263772-31.854829 41.809462 41.809462 0 0 0-31.191186-12.609203h-58.400518a40.482178 40.482178 0 0 0-31.191186 12.609203 43.800389 43.800389 0 0 0-13.272845 31.854829v335.802981l-128.082956 126.092028-126.092028-126.092028V277.402463a40.482178 40.482178 0 0 0-13.936488-31.191186 53.755023 53.755023 0 0 0-30.527543-15.263772v-126.092029h522.950097V60.391445a59.727803 59.727803 0 0 1 13.936487-40.482177 60.391445 60.391445 0 0 1 43.136747-19.909268h678.906027a59.727803 59.727803 0 0 1 41.809462 19.909268z m-106.846403 824.243681V186.483474a58.400518 58.400518 0 0 0-16.591056-40.482178 57.073234 57.073234 0 0 0-44.464032-17.918341h-424.067401a66.364226 66.364226 0 0 0-42.473104 15.263772 53.755023 53.755023 0 0 0-18.581983 43.136747v657.669475a59.727803 59.727803 0 0 0 16.591056 41.14582 59.064161 59.064161 0 0 0 44.464031 17.254698h424.067401a61.71873 61.71873 0 0 0 41.14582-15.263772 66.364226 66.364226 0 0 0 19.909268-43.136746z" fill="#BDCCD4" p-id="22378"></path><path d="M1963.82428 186.483474v657.669475a66.364226 66.364226 0 0 1-19.909268 43.136746 61.71873 61.71873 0 0 1-41.14582 15.263772h-424.067401a59.064161 59.064161 0 0 1-44.464031-17.254698 59.727803 59.727803 0 0 1-16.591056-41.14582V186.483474a53.755023 53.755023 0 0 1 18.581983-43.136747 66.364226 66.364226 0 0 1 42.473104-15.263772h424.067401a57.073234 57.073234 0 0 1 44.464032 17.918341 58.400518 58.400518 0 0 1 16.591056 40.482178z m-142.683085 530.913804v-398.185353a126.755671 126.755671 0 0 0-17.254699-31.191186 40.482178 40.482178 0 0 0-26.54569-15.263772h-173.210628a53.755023 53.755023 0 0 0-29.863902 15.263772 41.14582 41.14582 0 0 0-13.936487 31.191186v398.185353a40.482178 40.482178 0 0 0 13.936487 31.191186 53.755023 53.755023 0 0 0 29.863902 15.263772h173.210628a53.755023 53.755023 0 0 0 29.863902-15.263772 40.482178 40.482178 0 0 0 13.936487-32.51847z" fill="#FFFFFF" p-id="22379"></path><path d="M1821.141195 314.566429v398.185353a40.482178 40.482178 0 0 1-13.936487 31.191186 53.755023 53.755023 0 0 1-29.863902 15.263772h-173.210628a53.755023 53.755023 0 0 1-29.863902-15.263772 40.482178 40.482178 0 0 1-13.936487-31.191186v-398.185353a41.14582 41.14582 0 0 1 13.936487-31.191186 53.755023 53.755023 0 0 1 29.863902-17.918341h173.210628a40.482178 40.482178 0 0 1 26.54569 15.263772 126.755671 126.755671 0 0 1 17.254699 33.845755z" fill="#BDCCD4" p-id="22380"></path><path d="M1217.226743 284.702528v349.739468h-15.927414v15.927414a59.727803 59.727803 0 0 1-7.300065 37.827609l-209.710953 207.056383a53.09138 53.09138 0 0 1-30.527544 14.60013h-41.809462a53.09138 53.09138 0 0 1-30.527543-14.60013l-209.710953-207.056383a25.882048 25.882048 0 0 1-13.272845-19.909268 52.427738 52.427738 0 0 1 5.309138-27.209332V277.402463a40.482178 40.482178 0 0 1 13.936487-31.191186 55.745949 55.745949 0 0 1 30.527544-15.263772h60.391445a53.755023 53.755023 0 0 1 30.527544 15.263772 40.482178 40.482178 0 0 1 13.936487 31.191186v343.103046l126.092029 126.092028 128.082955-126.092028V284.702528a43.800389 43.800389 0 0 1 13.272845-31.854829 40.482178 40.482178 0 0 1 31.191186-12.609203h58.400519a41.809462 41.809462 0 0 1 31.191186 12.609203 51.764096 51.764096 0 0 1 15.927414 31.854829z" fill="#FFFFFF" p-id="22381"></path><path d="M932.524215 911.844459v112.155541H60.498292a78.309786 78.309786 0 0 1-41.809462-17.918341 51.764096 51.764096 0 0 1-18.581984-43.136746V165.910564a66.364226 66.364226 0 0 1 15.263772-42.473105 55.745949 55.745949 0 0 1 45.127674-18.581983h708.769928v126.092029h-60.391445a55.745949 55.745949 0 0 0-30.527544 15.263772 40.482178 40.482178 0 0 0-13.936487 31.191186v363.675956a52.427738 52.427738 0 0 0-5.97278 27.209332 25.882048 25.882048 0 0 0 13.272845 19.909268l209.710953 207.056383a53.09138 53.09138 0 0 0 30.527543 14.60013zM573.493755 862.734932v-58.400519a43.136747 43.136747 0 0 0-12.609203-31.854828 45.791316 45.791316 0 0 0-29.863901-9.954634H274.85474V277.402463A41.809462 41.809462 0 0 0 265.563749 246.211277a51.764096 51.764096 0 0 0-31.191186-15.263772H172.653833a51.764096 51.764096 0 0 0-31.854828 15.263772 49.109527 49.109527 0 0 0-14.60013 31.191186V862.734932a49.109527 49.109527 0 0 0 14.60013 31.191186 51.764096 51.764096 0 0 0 31.854828 15.263772h349.739468a49.773169 49.773169 0 0 0 31.191186-15.263772 41.809462 41.809462 0 0 0 13.272845-31.191186z" fill="#BDCCD4" p-id="22382"></path><path d="M573.493755 806.988983V862.734932h-6.636423a41.809462 41.809462 0 0 1-13.272845 31.191186 49.773169 49.773169 0 0 1-31.191186 15.263772H172.653833a51.764096 51.764096 0 0 1-31.854828-15.263772 49.109527 49.109527 0 0 1-14.60013-31.191186V277.402463a49.109527 49.109527 0 0 1 14.60013-31.191186 51.764096 51.764096 0 0 1 31.854828-15.263772h58.400518a51.764096 51.764096 0 0 1 34.509398 15.263772 41.809462 41.809462 0 0 1 12.609202 31.191186v485.122488H531.020651a45.791316 45.791316 0 0 1 31.854828 12.609203 43.136747 43.136747 0 0 1 10.618276 31.854829z" fill="#FFFFFF" p-id="22383"></path></svg>