<?xml version="1.0" standalone="no"?><!DOCTYPE svg PUBLIC "-//W3C//DTD SVG 1.1//EN" "http://www.w3.org/Graphics/SVG/1.1/DTD/svg11.dtd"><svg t="1733673110599" class="icon" viewBox="0 0 1901 1024" version="1.1" xmlns="http://www.w3.org/2000/svg" p-id="15384" xmlns:xlink="http://www.w3.org/1999/xlink" width="371.2890625" height="200"><path d="M1774.958446 832a63.634286 63.634286 0 0 1-63.414857 64h-405.577143a38.326857 38.326857 0 0 1-38.180572-38.546286v-50.907428c0-21.211429 17.042286-38.546286 38.180572-38.546286h342.162285V576h-342.162285a38.326857 38.326857 0 0 1-38.180572-38.546286v-50.907428c0-21.211429 17.042286-38.546286 38.180572-38.546286h342.162285V256h-342.162285a38.326857 38.326857 0 0 1-38.180572-38.546286v-50.907428c0-21.211429 17.042286-38.546286 38.180572-38.546286H1711.543589a63.634286 63.634286 0 0 1 63.414857 64v640zM1141.029303 661.357714c0 18.285714-7.753143 35.766857-21.211429 47.835429l-190.171428 170.715428a63.195429 63.195429 0 0 1-84.333715 0l-190.171428-170.715428a64.292571 64.292571 0 0 1-21.211429-47.835429v-367.177143a38.034286 38.034286 0 0 1 37.814857-38.180571h51.126858a38.034286 38.034286 0 0 1 37.814857 38.180571V632.685714l126.756571 113.737143 126.829714-113.737143V294.180571a38.034286 38.034286 0 0 1 37.814858-38.180571h51.126857a38.034286 38.034286 0 0 1 37.814857 38.180571v367.177143z m-570.514286 196.461715a38.034286 38.034286 0 0 1-37.814857 38.180571H190.17216a63.634286 63.634286 0 0 1-63.414857-64V294.180571a38.034286 38.034286 0 0 1 37.888-38.180571h51.053714a38.034286 38.034286 0 0 1 37.888 38.180571V768h279.113143a38.034286 38.034286 0 0 1 37.814857 38.180571v51.638858zM1838.080731 0h-633.417142c-35.108571 0-63.634286 28.745143-63.634286 64.219429v63.780571H63.415589A63.634286 63.634286 0 0 0 0.000731 192v768A63.634286 63.634286 0 0 0 63.415589 1024H1838.080731c35.108571 0 63.561143-28.745143 63.561143-64.219429V64.219429A63.853714 63.853714 0 0 0 1838.080731 0z" fill="#a5f90a" p-id="15385"></path></svg>