<?xml version="1.0" standalone="no"?><!DOCTYPE svg PUBLIC "-//W3C//DTD SVG 1.1//EN"
        "http://www.w3.org/Graphics/SVG/1.1/DTD/svg11.dtd">
<svg t="1733672784716" class="icon" viewBox="0 0 2068 1024" version="1.1" xmlns="http://www.w3.org/2000/svg" p-id="9950"
     xmlns:xlink="http://www.w3.org/1999/xlink" width="403.90625" height="200">
    <path d="M2006.204082 1024H62.693878a62.693878 62.693878 0 0 1-62.693878-62.693878V167.183673a62.693878 62.693878 0 0 1 62.693878-62.693877h1212.081632V62.693878a62.693878 62.693878 0 0 1 62.693878-62.693878h668.734694a62.693878 62.693878 0 0 1 62.693877 62.693878v898.612244a62.693878 62.693878 0 0 1-62.693877 62.693878zM564.244898 794.122449l-41.795918-41.795918H271.673469V271.673469a41.795918 41.795918 0 0 0-41.795918-41.795918H167.183673a41.795918 41.795918 0 0 0-41.795918 41.795918v585.142858a41.795918 41.795918 0 0 0 41.795918 41.795918h355.265307a41.795918 41.795918 0 0 0 41.795918-41.795918v-62.693878z m626.938775-522.44898a41.795918 41.795918 0 0 0-41.795918-41.795918h-62.693877a41.795918 41.795918 0 0 0-41.795919 41.795918v314.514286l-123.924898 123.924898L794.122449 583.262041V271.673469a41.795918 41.795918 0 0 0-41.795918-41.795918h-62.693878a41.795918 41.795918 0 0 0-41.795918 41.795918v355.265307a41.294367 41.294367 0 0 0 6.85453 22.778775 41.900408 41.900408 0 0 0 9.926531 16.718367l215.24898 215.45796a43.21698 43.21698 0 0 0 49.86253 7.732244 42.401959 42.401959 0 0 0 30.740898-12.120816l209.418449-209.60653a36.446041 36.446041 0 0 0 6.03951-8.986123A41.545143 41.545143 0 0 0 1191.183673 626.938776V271.673469z m752.326531 522.44898V480.653061a41.795918 41.795918 0 0 0-41.795918-41.795918H1546.44898v-167.183674h355.265306a41.795918 41.795918 0 0 0 41.795918-41.795918V167.183673a41.795918 41.795918 0 0 0-41.795918-41.795918H1441.959184a41.795918 41.795918 0 0 0-41.795919 41.795918v689.632654a41.795918 41.795918 0 0 0 41.795919 41.795918h459.755102a41.795918 41.795918 0 0 0 41.795918-41.795918v-62.693878zM1546.44898 585.142857h250.77551v167.183674H1546.44898v-167.183674z"
          p-id="9951" fill="#d81e06"></path>
</svg>