<?xml version="1.0" standalone="no"?><!DOCTYPE svg PUBLIC "-//W3C//DTD SVG 1.1//EN" "http://www.w3.org/Graphics/SVG/1.1/DTD/svg11.dtd"><svg t="1733673175190" class="icon" viewBox="0 0 2068 1024" version="1.1" xmlns="http://www.w3.org/2000/svg" p-id="20859" xmlns:xlink="http://www.w3.org/1999/xlink" width="403.90625" height="200"><path d="M2006.204082 1024H62.693878a62.693878 62.693878 0 0 1-62.693878-62.693878V167.183673a62.693878 62.693878 0 0 1 62.693878-62.693877h1212.081632V62.693878a62.693878 62.693878 0 0 1 62.693878-62.693878h668.734694a62.693878 62.693878 0 0 1 62.693877 62.693878v898.612244a62.693878 62.693878 0 0 1-62.693877 62.693878zM564.244898 794.122449l-41.795918-41.795918H271.673469V271.673469a41.795918 41.795918 0 0 0-41.795918-41.795918H167.183673a41.795918 41.795918 0 0 0-41.795918 41.795918v585.142858a41.795918 41.795918 0 0 0 41.795918 41.795918h355.265307a41.795918 41.795918 0 0 0 41.795918-41.795918v-62.693878z m626.938775-522.44898a41.795918 41.795918 0 0 0-41.795918-41.795918h-62.693877a41.795918 41.795918 0 0 0-41.795919 41.795918v314.514286l-123.924898 123.924898L794.122449 583.262041V271.673469a41.795918 41.795918 0 0 0-41.795918-41.795918h-62.693878a41.795918 41.795918 0 0 0-41.795918 41.795918v355.265307a41.628735 41.628735 0 0 0 6.85453 22.862367 42.109388 42.109388 0 0 0 9.926531 16.718367l215.24898 215.24898a42.882612 42.882612 0 0 0 49.86253 7.711347 41.586939 41.586939 0 0 0 30.740898-12.141715l209.418449-209.418449a40.353959 40.353959 0 0 0 6.03951-9.069714A41.524245 41.524245 0 0 0 1191.183673 626.938776V271.673469z m647.836735 522.44898a41.795918 41.795918 0 0 0-41.795918-41.795918h-62.693878V188.081633a41.795918 41.795918 0 0 0-41.795918-41.795919h-146.285714a41.795918 41.795918 0 0 0-41.795919 41.795919v62.693877a41.795918 41.795918 0 0 0 41.795919 41.795919h41.795918v459.755102h-62.693878a41.795918 41.795918 0 0 0-41.795918 41.795918v62.693878a41.795918 41.795918 0 0 0 41.795918 41.795918h271.67347a41.795918 41.795918 0 0 0 41.795918-41.795918v-62.693878z" p-id="20860" fill="#cdcdcd"></path></svg>