<?xml version="1.0" standalone="no"?><!DOCTYPE svg PUBLIC "-//W3C//DTD SVG 1.1//EN" "http://www.w3.org/Graphics/SVG/1.1/DTD/svg11.dtd"><svg t="1733673075341" class="icon" viewBox="0 0 1901 1024" version="1.1" xmlns="http://www.w3.org/2000/svg" p-id="13127" xmlns:xlink="http://www.w3.org/1999/xlink" width="371.2890625" height="200"><path d="M1774.958446 857.453714c0 21.211429-17.042286 38.546286-38.180572 38.546286h-50.468571a38.326857 38.326857 0 0 1-38.180572-38.546286V576H1331.200731A63.707429 63.707429 0 0 1 1267.785874 512V166.473143c0-21.211429 17.042286-38.473143 38.180572-38.473143h50.468571c21.138286 0 38.180571 17.188571 38.180572 38.473143v281.526857h253.513142v-281.6c0-21.211429 17.042286-38.4 38.180572-38.4h50.468571c21.138286 0 38.180571 17.188571 38.180572 38.473143v690.980571zM1141.029303 661.430857a64.365714 64.365714 0 0 1-21.211429 47.762286l-190.171428 170.715428a63.195429 63.195429 0 0 1-84.333715 0l-190.171428-170.715428a64.365714 64.365714 0 0 1-21.211429-47.835429v-367.177143a38.034286 38.034286 0 0 1 37.814857-38.180571h51.126858a38.034286 38.034286 0 0 1 37.814857 38.107429V632.685714l126.756571 113.737143 126.829714-113.810286V294.180571a38.034286 38.034286 0 0 1 37.814858-38.107428h51.126857a38.034286 38.034286 0 0 1 37.814857 38.107428v367.250286z m-570.514286 196.388572a38.034286 38.034286 0 0 1-37.814857 38.180571H190.17216a63.707429 63.707429 0 0 1-63.414857-64V294.107429a38.034286 38.034286 0 0 1 37.888-38.107429h51.053714a38.034286 38.034286 0 0 1 37.888 38.107429V768h279.113143a38.034286 38.034286 0 0 1 37.814857 38.107429v51.712zM1838.080731 0h-633.417142c-35.108571 0-63.634286 28.745143-63.634286 64.146286v63.853714H63.415589A63.634286 63.634286 0 0 0 0.000731 192v768c0 35.328 28.379429 64 63.414858 64H1838.080731c35.108571 0 63.561143-28.818286 63.561143-64.219429V64.146286A63.853714 63.853714 0 0 0 1838.080731 0z" fill="#f9e70b" p-id="13128"></path></svg>